# xmcd
#
# Track frame offsets: 
#        150
#        15855
#        32300
#        45595
#        59697
#        74445
#        87660
#        99050
#        112755
#        125345
#        136707
#        150007
#        161825
#        174432
#
# Disc length: 2586 seconds
#
# Revision: 1
# Processed by: cddbd v1.5.2PL0 Copyright (c) Steve Scherf et al.
# Submitted via: ExactAudioCopy v0.99pb3
#
DISCID=9b0a180e
DTITLE=Milt Jackson Quartet - Beginnings
DYEAR=1900
DGENRE=Jazz
TTITLE0=Softly As In A Morning Sunrise
TTITLE1=Love Me, Pretty Baby
TTITLE2=Autumn Breeze
TTITLE3=Milt Meets Sid
TTITLE4=Moving Nicely
TTITLE5=D and E
TTITLE6=Heart And Soul
TTITLE7=True Blues
TTITLE8=Bluesology
TTITLE9=Yesterdays
TTITLE10='Round Midnight
TTITLE11=Between The Devil And The Deep Blue Sea
TTITLE12=(billing is: Milt Jackson) Bluesology Bonus Track
TTITLE13=(Kenny Clarke All Stars) Blue Mood Bonus Track
EXTD=
EXTT0=
EXTT1=
EXTT2=
EXTT3=
EXTT4=
EXTT5=
EXTT6=
EXTT7=
EXTT8=
EXTT9=
EXTT10=
EXTT11=
EXTT12=
EXTT13=
PLAYORDER=
